<mxfile host="app.diagrams.net" modified="2021-09-04T13:44:03.417Z" agent="5.0 (X11)" etag="XNmw8OSFXx1ci0lykFQK" version="15.0.6" type="github">
  <diagram id="7xYDh08NcEi_VtG_tVV7" name="Page-1">
    <mxGraphModel dx="181" dy="-66" grid="1" gridSize="10" guides="1" tooltips="1" connect="1" arrows="1" fold="1" page="1" pageScale="1" pageWidth="850" pageHeight="1100" math="0" shadow="0">
      <root>
        <mxCell id="0" />
        <mxCell id="1" parent="0" />
        <mxCell id="7W-jUXoZuzK3Gu51qgMF-1" value="Budgetary control" style="rounded=1;whiteSpace=wrap;html=1;" vertex="1" parent="1">
          <mxGeometry x="400" width="120" height="40" as="geometry" />
        </mxCell>
        <mxCell id="7W-jUXoZuzK3Gu51qgMF-2" value="Types of cost and how to find them" style="rounded=1;whiteSpace=wrap;html=1;" vertex="1" parent="1">
          <mxGeometry x="400" y="80" width="120" height="40" as="geometry" />
        </mxCell>
        <mxCell id="7W-jUXoZuzK3Gu51qgMF-3" value="Fixed" style="rounded=1;whiteSpace=wrap;html=1;" vertex="1" parent="1">
          <mxGeometry x="580" y="190" width="120" height="40" as="geometry" />
        </mxCell>
        <mxCell id="7W-jUXoZuzK3Gu51qgMF-49" style="edgeStyle=orthogonalEdgeStyle;rounded=0;orthogonalLoop=1;jettySize=auto;html=1;" edge="1" parent="1" source="7W-jUXoZuzK3Gu51qgMF-4" target="7W-jUXoZuzK3Gu51qgMF-48">
          <mxGeometry relative="1" as="geometry" />
        </mxCell>
        <mxCell id="7W-jUXoZuzK3Gu51qgMF-4" value="Semi-variable" style="rounded=1;whiteSpace=wrap;html=1;" vertex="1" parent="1">
          <mxGeometry x="440" y="190" width="120" height="40" as="geometry" />
        </mxCell>
        <mxCell id="7W-jUXoZuzK3Gu51qgMF-30" style="edgeStyle=orthogonalEdgeStyle;rounded=0;orthogonalLoop=1;jettySize=auto;html=1;" edge="1" parent="1" source="7W-jUXoZuzK3Gu51qgMF-5" target="7W-jUXoZuzK3Gu51qgMF-6">
          <mxGeometry relative="1" as="geometry" />
        </mxCell>
        <mxCell id="7W-jUXoZuzK3Gu51qgMF-5" value="Variable" style="rounded=1;whiteSpace=wrap;html=1;" vertex="1" parent="1">
          <mxGeometry x="240" y="190" width="120" height="40" as="geometry" />
        </mxCell>
        <mxCell id="7W-jUXoZuzK3Gu51qgMF-29" style="edgeStyle=orthogonalEdgeStyle;rounded=0;orthogonalLoop=1;jettySize=auto;html=1;" edge="1" parent="1" source="7W-jUXoZuzK3Gu51qgMF-6" target="7W-jUXoZuzK3Gu51qgMF-9">
          <mxGeometry relative="1" as="geometry" />
        </mxCell>
        <mxCell id="7W-jUXoZuzK3Gu51qgMF-6" value="&lt;div&gt;1. Find Per unit value&lt;/div&gt;&lt;div&gt;if they are same, then it is variable&lt;br&gt;&lt;/div&gt;" style="rounded=1;whiteSpace=wrap;html=1;" vertex="1" parent="1">
          <mxGeometry x="220" y="250" width="160" height="60" as="geometry" />
        </mxCell>
        <mxCell id="7W-jUXoZuzK3Gu51qgMF-9" value="Example" style="shape=table;startSize=30;container=1;collapsible=0;childLayout=tableLayout;" vertex="1" parent="1">
          <mxGeometry x="210" y="330" width="180" height="190" as="geometry" />
        </mxCell>
        <mxCell id="7W-jUXoZuzK3Gu51qgMF-10" value="" style="shape=partialRectangle;collapsible=0;dropTarget=0;pointerEvents=0;fillColor=none;top=0;left=0;bottom=0;right=0;points=[[0,0.5],[1,0.5]];portConstraint=eastwest;" vertex="1" parent="7W-jUXoZuzK3Gu51qgMF-9">
          <mxGeometry y="30" width="180" height="40" as="geometry" />
        </mxCell>
        <mxCell id="7W-jUXoZuzK3Gu51qgMF-11" value="" style="shape=partialRectangle;html=1;whiteSpace=wrap;connectable=0;overflow=hidden;fillColor=none;top=0;left=0;bottom=0;right=0;pointerEvents=1;" vertex="1" parent="7W-jUXoZuzK3Gu51qgMF-10">
          <mxGeometry width="60" height="40" as="geometry" />
        </mxCell>
        <mxCell id="7W-jUXoZuzK3Gu51qgMF-12" value="std" style="shape=partialRectangle;html=1;whiteSpace=wrap;connectable=0;overflow=hidden;fillColor=none;top=0;left=0;bottom=0;right=0;pointerEvents=1;" vertex="1" parent="7W-jUXoZuzK3Gu51qgMF-10">
          <mxGeometry x="60" width="60" height="40" as="geometry" />
        </mxCell>
        <mxCell id="7W-jUXoZuzK3Gu51qgMF-13" value="Actual" style="shape=partialRectangle;html=1;whiteSpace=wrap;connectable=0;overflow=hidden;fillColor=none;top=0;left=0;bottom=0;right=0;pointerEvents=1;" vertex="1" parent="7W-jUXoZuzK3Gu51qgMF-10">
          <mxGeometry x="120" width="60" height="40" as="geometry" />
        </mxCell>
        <mxCell id="7W-jUXoZuzK3Gu51qgMF-14" value="" style="shape=partialRectangle;collapsible=0;dropTarget=0;pointerEvents=0;fillColor=none;top=0;left=0;bottom=0;right=0;points=[[0,0.5],[1,0.5]];portConstraint=eastwest;" vertex="1" parent="7W-jUXoZuzK3Gu51qgMF-9">
          <mxGeometry y="70" width="180" height="40" as="geometry" />
        </mxCell>
        <mxCell id="7W-jUXoZuzK3Gu51qgMF-15" value="Units" style="shape=partialRectangle;html=1;whiteSpace=wrap;connectable=0;overflow=hidden;fillColor=none;top=0;left=0;bottom=0;right=0;pointerEvents=1;" vertex="1" parent="7W-jUXoZuzK3Gu51qgMF-14">
          <mxGeometry width="60" height="40" as="geometry" />
        </mxCell>
        <mxCell id="7W-jUXoZuzK3Gu51qgMF-16" value="10,000" style="shape=partialRectangle;html=1;whiteSpace=wrap;connectable=0;overflow=hidden;fillColor=none;top=0;left=0;bottom=0;right=0;pointerEvents=1;" vertex="1" parent="7W-jUXoZuzK3Gu51qgMF-14">
          <mxGeometry x="60" width="60" height="40" as="geometry" />
        </mxCell>
        <mxCell id="7W-jUXoZuzK3Gu51qgMF-17" value="8,000" style="shape=partialRectangle;html=1;whiteSpace=wrap;connectable=0;overflow=hidden;fillColor=none;top=0;left=0;bottom=0;right=0;pointerEvents=1;" vertex="1" parent="7W-jUXoZuzK3Gu51qgMF-14">
          <mxGeometry x="120" width="60" height="40" as="geometry" />
        </mxCell>
        <mxCell id="7W-jUXoZuzK3Gu51qgMF-18" style="shape=partialRectangle;collapsible=0;dropTarget=0;pointerEvents=0;fillColor=none;top=0;left=0;bottom=0;right=0;points=[[0,0.5],[1,0.5]];portConstraint=eastwest;" vertex="1" parent="7W-jUXoZuzK3Gu51qgMF-9">
          <mxGeometry y="110" width="180" height="40" as="geometry" />
        </mxCell>
        <mxCell id="7W-jUXoZuzK3Gu51qgMF-19" value="Cost" style="shape=partialRectangle;html=1;whiteSpace=wrap;connectable=0;overflow=hidden;fillColor=none;top=0;left=0;bottom=0;right=0;pointerEvents=1;" vertex="1" parent="7W-jUXoZuzK3Gu51qgMF-18">
          <mxGeometry width="60" height="40" as="geometry" />
        </mxCell>
        <mxCell id="7W-jUXoZuzK3Gu51qgMF-20" value="900" style="shape=partialRectangle;html=1;whiteSpace=wrap;connectable=0;overflow=hidden;fillColor=none;top=0;left=0;bottom=0;right=0;pointerEvents=1;" vertex="1" parent="7W-jUXoZuzK3Gu51qgMF-18">
          <mxGeometry x="60" width="60" height="40" as="geometry" />
        </mxCell>
        <mxCell id="7W-jUXoZuzK3Gu51qgMF-21" value="720" style="shape=partialRectangle;html=1;whiteSpace=wrap;connectable=0;overflow=hidden;fillColor=none;top=0;left=0;bottom=0;right=0;pointerEvents=1;" vertex="1" parent="7W-jUXoZuzK3Gu51qgMF-18">
          <mxGeometry x="120" width="60" height="40" as="geometry" />
        </mxCell>
        <mxCell id="7W-jUXoZuzK3Gu51qgMF-22" style="shape=partialRectangle;collapsible=0;dropTarget=0;pointerEvents=0;fillColor=none;top=0;left=0;bottom=0;right=0;points=[[0,0.5],[1,0.5]];portConstraint=eastwest;" vertex="1" parent="7W-jUXoZuzK3Gu51qgMF-9">
          <mxGeometry y="150" width="180" height="40" as="geometry" />
        </mxCell>
        <mxCell id="7W-jUXoZuzK3Gu51qgMF-23" value="P.U" style="shape=partialRectangle;html=1;whiteSpace=wrap;connectable=0;overflow=hidden;fillColor=none;top=0;left=0;bottom=0;right=0;pointerEvents=1;" vertex="1" parent="7W-jUXoZuzK3Gu51qgMF-22">
          <mxGeometry width="60" height="40" as="geometry" />
        </mxCell>
        <mxCell id="7W-jUXoZuzK3Gu51qgMF-24" value="0.09" style="shape=partialRectangle;html=1;whiteSpace=wrap;connectable=0;overflow=hidden;fillColor=none;top=0;left=0;bottom=0;right=0;pointerEvents=1;" vertex="1" parent="7W-jUXoZuzK3Gu51qgMF-22">
          <mxGeometry x="60" width="60" height="40" as="geometry" />
        </mxCell>
        <mxCell id="7W-jUXoZuzK3Gu51qgMF-25" value="0.09" style="shape=partialRectangle;html=1;whiteSpace=wrap;connectable=0;overflow=hidden;fillColor=none;top=0;left=0;bottom=0;right=0;pointerEvents=1;" vertex="1" parent="7W-jUXoZuzK3Gu51qgMF-22">
          <mxGeometry x="120" width="60" height="40" as="geometry" />
        </mxCell>
        <mxCell id="7W-jUXoZuzK3Gu51qgMF-27" style="edgeStyle=orthogonalEdgeStyle;rounded=0;orthogonalLoop=1;jettySize=auto;html=1;entryX=0.835;entryY=1.001;entryDx=0;entryDy=0;entryPerimeter=0;" edge="1" parent="1" source="7W-jUXoZuzK3Gu51qgMF-26" target="7W-jUXoZuzK3Gu51qgMF-22">
          <mxGeometry relative="1" as="geometry" />
        </mxCell>
        <mxCell id="7W-jUXoZuzK3Gu51qgMF-28" style="edgeStyle=orthogonalEdgeStyle;rounded=0;orthogonalLoop=1;jettySize=auto;html=1;entryX=0.512;entryY=0.977;entryDx=0;entryDy=0;entryPerimeter=0;" edge="1" parent="1" source="7W-jUXoZuzK3Gu51qgMF-26" target="7W-jUXoZuzK3Gu51qgMF-22">
          <mxGeometry relative="1" as="geometry" />
        </mxCell>
        <mxCell id="7W-jUXoZuzK3Gu51qgMF-26" value="Since P.U is same it is variable cost" style="rounded=0;whiteSpace=wrap;html=1;" vertex="1" parent="1">
          <mxGeometry x="270" y="560" width="120" height="40" as="geometry" />
        </mxCell>
        <mxCell id="7W-jUXoZuzK3Gu51qgMF-31" value="Example" style="shape=table;startSize=30;container=1;collapsible=0;childLayout=tableLayout;" vertex="1" parent="1">
          <mxGeometry x="410" y="330" width="180" height="190" as="geometry" />
        </mxCell>
        <mxCell id="7W-jUXoZuzK3Gu51qgMF-32" value="" style="shape=partialRectangle;collapsible=0;dropTarget=0;pointerEvents=0;fillColor=none;top=0;left=0;bottom=0;right=0;points=[[0,0.5],[1,0.5]];portConstraint=eastwest;" vertex="1" parent="7W-jUXoZuzK3Gu51qgMF-31">
          <mxGeometry y="30" width="180" height="40" as="geometry" />
        </mxCell>
        <mxCell id="7W-jUXoZuzK3Gu51qgMF-33" value="" style="shape=partialRectangle;html=1;whiteSpace=wrap;connectable=0;overflow=hidden;fillColor=none;top=0;left=0;bottom=0;right=0;pointerEvents=1;" vertex="1" parent="7W-jUXoZuzK3Gu51qgMF-32">
          <mxGeometry width="60" height="40" as="geometry" />
        </mxCell>
        <mxCell id="7W-jUXoZuzK3Gu51qgMF-34" value="std" style="shape=partialRectangle;html=1;whiteSpace=wrap;connectable=0;overflow=hidden;fillColor=none;top=0;left=0;bottom=0;right=0;pointerEvents=1;" vertex="1" parent="7W-jUXoZuzK3Gu51qgMF-32">
          <mxGeometry x="60" width="60" height="40" as="geometry" />
        </mxCell>
        <mxCell id="7W-jUXoZuzK3Gu51qgMF-35" value="Actual" style="shape=partialRectangle;html=1;whiteSpace=wrap;connectable=0;overflow=hidden;fillColor=none;top=0;left=0;bottom=0;right=0;pointerEvents=1;" vertex="1" parent="7W-jUXoZuzK3Gu51qgMF-32">
          <mxGeometry x="120" width="60" height="40" as="geometry" />
        </mxCell>
        <mxCell id="7W-jUXoZuzK3Gu51qgMF-36" value="" style="shape=partialRectangle;collapsible=0;dropTarget=0;pointerEvents=0;fillColor=none;top=0;left=0;bottom=0;right=0;points=[[0,0.5],[1,0.5]];portConstraint=eastwest;" vertex="1" parent="7W-jUXoZuzK3Gu51qgMF-31">
          <mxGeometry y="70" width="180" height="40" as="geometry" />
        </mxCell>
        <mxCell id="7W-jUXoZuzK3Gu51qgMF-37" value="Units" style="shape=partialRectangle;html=1;whiteSpace=wrap;connectable=0;overflow=hidden;fillColor=none;top=0;left=0;bottom=0;right=0;pointerEvents=1;" vertex="1" parent="7W-jUXoZuzK3Gu51qgMF-36">
          <mxGeometry width="60" height="40" as="geometry" />
        </mxCell>
        <mxCell id="7W-jUXoZuzK3Gu51qgMF-38" value="10,000" style="shape=partialRectangle;html=1;whiteSpace=wrap;connectable=0;overflow=hidden;fillColor=none;top=0;left=0;bottom=0;right=0;pointerEvents=1;" vertex="1" parent="7W-jUXoZuzK3Gu51qgMF-36">
          <mxGeometry x="60" width="60" height="40" as="geometry" />
        </mxCell>
        <mxCell id="7W-jUXoZuzK3Gu51qgMF-39" value="8,000" style="shape=partialRectangle;html=1;whiteSpace=wrap;connectable=0;overflow=hidden;fillColor=none;top=0;left=0;bottom=0;right=0;pointerEvents=1;" vertex="1" parent="7W-jUXoZuzK3Gu51qgMF-36">
          <mxGeometry x="120" width="60" height="40" as="geometry" />
        </mxCell>
        <mxCell id="7W-jUXoZuzK3Gu51qgMF-40" style="shape=partialRectangle;collapsible=0;dropTarget=0;pointerEvents=0;fillColor=none;top=0;left=0;bottom=0;right=0;points=[[0,0.5],[1,0.5]];portConstraint=eastwest;" vertex="1" parent="7W-jUXoZuzK3Gu51qgMF-31">
          <mxGeometry y="110" width="180" height="40" as="geometry" />
        </mxCell>
        <mxCell id="7W-jUXoZuzK3Gu51qgMF-41" value="Cost" style="shape=partialRectangle;html=1;whiteSpace=wrap;connectable=0;overflow=hidden;fillColor=none;top=0;left=0;bottom=0;right=0;pointerEvents=1;" vertex="1" parent="7W-jUXoZuzK3Gu51qgMF-40">
          <mxGeometry width="60" height="40" as="geometry" />
        </mxCell>
        <mxCell id="7W-jUXoZuzK3Gu51qgMF-42" value="650" style="shape=partialRectangle;html=1;whiteSpace=wrap;connectable=0;overflow=hidden;fillColor=none;top=0;left=0;bottom=0;right=0;pointerEvents=1;" vertex="1" parent="7W-jUXoZuzK3Gu51qgMF-40">
          <mxGeometry x="60" width="60" height="40" as="geometry" />
        </mxCell>
        <mxCell id="7W-jUXoZuzK3Gu51qgMF-43" value="600" style="shape=partialRectangle;html=1;whiteSpace=wrap;connectable=0;overflow=hidden;fillColor=none;top=0;left=0;bottom=0;right=0;pointerEvents=1;" vertex="1" parent="7W-jUXoZuzK3Gu51qgMF-40">
          <mxGeometry x="120" width="60" height="40" as="geometry" />
        </mxCell>
        <mxCell id="7W-jUXoZuzK3Gu51qgMF-44" style="shape=partialRectangle;collapsible=0;dropTarget=0;pointerEvents=0;fillColor=none;top=0;left=0;bottom=0;right=0;points=[[0,0.5],[1,0.5]];portConstraint=eastwest;" vertex="1" parent="7W-jUXoZuzK3Gu51qgMF-31">
          <mxGeometry y="150" width="180" height="40" as="geometry" />
        </mxCell>
        <mxCell id="7W-jUXoZuzK3Gu51qgMF-45" value="P.U" style="shape=partialRectangle;html=1;whiteSpace=wrap;connectable=0;overflow=hidden;fillColor=none;top=0;left=0;bottom=0;right=0;pointerEvents=1;" vertex="1" parent="7W-jUXoZuzK3Gu51qgMF-44">
          <mxGeometry width="60" height="40" as="geometry" />
        </mxCell>
        <mxCell id="7W-jUXoZuzK3Gu51qgMF-46" value="0.065" style="shape=partialRectangle;html=1;whiteSpace=wrap;connectable=0;overflow=hidden;fillColor=none;top=0;left=0;bottom=0;right=0;pointerEvents=1;" vertex="1" parent="7W-jUXoZuzK3Gu51qgMF-44">
          <mxGeometry x="60" width="60" height="40" as="geometry" />
        </mxCell>
        <mxCell id="7W-jUXoZuzK3Gu51qgMF-47" value="0.075" style="shape=partialRectangle;html=1;whiteSpace=wrap;connectable=0;overflow=hidden;fillColor=none;top=0;left=0;bottom=0;right=0;pointerEvents=1;" vertex="1" parent="7W-jUXoZuzK3Gu51qgMF-44">
          <mxGeometry x="120" width="60" height="40" as="geometry" />
        </mxCell>
        <mxCell id="7W-jUXoZuzK3Gu51qgMF-50" style="edgeStyle=orthogonalEdgeStyle;rounded=0;orthogonalLoop=1;jettySize=auto;html=1;entryX=0.5;entryY=0;entryDx=0;entryDy=0;" edge="1" parent="1" source="7W-jUXoZuzK3Gu51qgMF-48" target="7W-jUXoZuzK3Gu51qgMF-31">
          <mxGeometry relative="1" as="geometry" />
        </mxCell>
        <mxCell id="7W-jUXoZuzK3Gu51qgMF-48" value="&lt;div&gt;1. Find Per unit value&lt;/div&gt;&lt;div&gt;if Totals are different and PU is also different it is semi variable&lt;br&gt;&lt;/div&gt;" style="rounded=1;whiteSpace=wrap;html=1;" vertex="1" parent="1">
          <mxGeometry x="420" y="250" width="160" height="60" as="geometry" />
        </mxCell>
        <mxCell id="7W-jUXoZuzK3Gu51qgMF-52" style="edgeStyle=orthogonalEdgeStyle;rounded=0;orthogonalLoop=1;jettySize=auto;html=1;entryX=1;entryY=0.5;entryDx=0;entryDy=0;" edge="1" parent="1" source="7W-jUXoZuzK3Gu51qgMF-51" target="7W-jUXoZuzK3Gu51qgMF-44">
          <mxGeometry relative="1" as="geometry" />
        </mxCell>
        <mxCell id="7W-jUXoZuzK3Gu51qgMF-53" style="edgeStyle=orthogonalEdgeStyle;rounded=0;orthogonalLoop=1;jettySize=auto;html=1;entryX=1;entryY=0.5;entryDx=0;entryDy=0;" edge="1" parent="1" source="7W-jUXoZuzK3Gu51qgMF-51" target="7W-jUXoZuzK3Gu51qgMF-36">
          <mxGeometry relative="1" as="geometry" />
        </mxCell>
        <mxCell id="7W-jUXoZuzK3Gu51qgMF-51" value="Since P.U and total is different it is semi variable cost" style="rounded=0;whiteSpace=wrap;html=1;" vertex="1" parent="1">
          <mxGeometry x="550" y="560" width="120" height="60" as="geometry" />
        </mxCell>
      </root>
    </mxGraphModel>
  </diagram>
</mxfile>
